<mxfile host="app.diagrams.net" modified="2023-09-18T12:03:49.801Z" agent="Mozilla/5.0 (Windows NT 10.0; Win64; x64) AppleWebKit/537.36 (KHTML, like Gecko) Chrome/116.0.0.0 Safari/537.36" etag="3lCAOaGPJ5CsRiTeNdnG" version="21.7.5" type="github">
  <diagram name="Page-1" id="tQfPLBi8K9xGGaVzHt_Q">
    <mxGraphModel dx="1173" dy="637" grid="1" gridSize="10" guides="1" tooltips="1" connect="1" arrows="1" fold="1" page="1" pageScale="1" pageWidth="850" pageHeight="1100" math="0" shadow="0">
      <root>
        <mxCell id="0" />
        <mxCell id="1" parent="0" />
        <mxCell id="Wa0-3BYV7t-kmoMnkPTn-1" value="" style="html=1;dashed=0;whiteSpace=wrap;shape=mxgraph.dfd.start" vertex="1" parent="1">
          <mxGeometry x="380" y="130" width="140" height="30" as="geometry" />
        </mxCell>
        <mxCell id="Wa0-3BYV7t-kmoMnkPTn-2" value="" style="html=1;dashed=0;whiteSpace=wrap;shape=mxgraph.dfd.start" vertex="1" parent="1">
          <mxGeometry x="385" y="210" width="80" height="30" as="geometry" />
        </mxCell>
        <mxCell id="Wa0-3BYV7t-kmoMnkPTn-3" value="" style="html=1;dashed=0;whiteSpace=wrap;shape=mxgraph.dfd.start" vertex="1" parent="1">
          <mxGeometry x="385.5" y="350" width="80" height="30" as="geometry" />
        </mxCell>
        <mxCell id="Wa0-3BYV7t-kmoMnkPTn-4" value="" style="html=1;dashed=0;whiteSpace=wrap;shape=mxgraph.dfd.start" vertex="1" parent="1">
          <mxGeometry x="368" y="280" width="115" height="40" as="geometry" />
        </mxCell>
        <mxCell id="Wa0-3BYV7t-kmoMnkPTn-45" style="edgeStyle=orthogonalEdgeStyle;rounded=0;orthogonalLoop=1;jettySize=auto;html=1;exitX=0.5;exitY=1;exitDx=0;exitDy=0;" edge="1" parent="1" source="Wa0-3BYV7t-kmoMnkPTn-5">
          <mxGeometry relative="1" as="geometry">
            <mxPoint x="370" y="670" as="targetPoint" />
          </mxGeometry>
        </mxCell>
        <mxCell id="Wa0-3BYV7t-kmoMnkPTn-47" style="edgeStyle=orthogonalEdgeStyle;rounded=0;orthogonalLoop=1;jettySize=auto;html=1;exitX=0;exitY=0.5;exitDx=0;exitDy=0;entryX=0;entryY=0.5;entryDx=0;entryDy=0;entryPerimeter=0;" edge="1" parent="1" source="Wa0-3BYV7t-kmoMnkPTn-5" target="Wa0-3BYV7t-kmoMnkPTn-4">
          <mxGeometry relative="1" as="geometry">
            <mxPoint x="110" y="575" as="sourcePoint" />
            <mxPoint x="258" y="280" as="targetPoint" />
          </mxGeometry>
        </mxCell>
        <mxCell id="Wa0-3BYV7t-kmoMnkPTn-5" value="" style="shape=rhombus;html=1;dashed=0;whiteSpace=wrap;perimeter=rhombusPerimeter;" vertex="1" parent="1">
          <mxGeometry x="220" y="570" width="60" height="50" as="geometry" />
        </mxCell>
        <mxCell id="Wa0-3BYV7t-kmoMnkPTn-46" style="edgeStyle=orthogonalEdgeStyle;rounded=0;orthogonalLoop=1;jettySize=auto;html=1;exitX=0.5;exitY=1;exitDx=0;exitDy=0;" edge="1" parent="1" source="Wa0-3BYV7t-kmoMnkPTn-6">
          <mxGeometry relative="1" as="geometry">
            <mxPoint x="460" y="670" as="targetPoint" />
          </mxGeometry>
        </mxCell>
        <mxCell id="Wa0-3BYV7t-kmoMnkPTn-6" value="" style="shape=rhombus;html=1;dashed=0;whiteSpace=wrap;perimeter=rhombusPerimeter;" vertex="1" parent="1">
          <mxGeometry x="560" y="570" width="60" height="50" as="geometry" />
        </mxCell>
        <mxCell id="Wa0-3BYV7t-kmoMnkPTn-7" value="" style="line;strokeWidth=6;fillColor=none;align=left;verticalAlign=middle;spacingTop=-1;spacingLeft=3;spacingRight=3;rotatable=0;labelPosition=right;points=[];portConstraint=eastwest;strokeColor=inherit;" vertex="1" parent="1">
          <mxGeometry x="347.5" y="430" width="145" height="8" as="geometry" />
        </mxCell>
        <mxCell id="Wa0-3BYV7t-kmoMnkPTn-44" style="edgeStyle=orthogonalEdgeStyle;rounded=0;orthogonalLoop=1;jettySize=auto;html=1;exitX=0.5;exitY=0.5;exitDx=0;exitDy=25;exitPerimeter=0;entryX=0.5;entryY=0;entryDx=0;entryDy=0;" edge="1" parent="1" source="Wa0-3BYV7t-kmoMnkPTn-8" target="Wa0-3BYV7t-kmoMnkPTn-6">
          <mxGeometry relative="1" as="geometry" />
        </mxCell>
        <mxCell id="Wa0-3BYV7t-kmoMnkPTn-8" value="" style="html=1;dashed=0;whiteSpace=wrap;shape=mxgraph.dfd.start" vertex="1" parent="1">
          <mxGeometry x="540" y="490" width="100" height="50" as="geometry" />
        </mxCell>
        <mxCell id="Wa0-3BYV7t-kmoMnkPTn-43" style="edgeStyle=orthogonalEdgeStyle;rounded=0;orthogonalLoop=1;jettySize=auto;html=1;exitX=0.5;exitY=0.5;exitDx=0;exitDy=25;exitPerimeter=0;entryX=0.45;entryY=0.14;entryDx=0;entryDy=0;entryPerimeter=0;" edge="1" parent="1" source="Wa0-3BYV7t-kmoMnkPTn-9" target="Wa0-3BYV7t-kmoMnkPTn-5">
          <mxGeometry relative="1" as="geometry" />
        </mxCell>
        <mxCell id="Wa0-3BYV7t-kmoMnkPTn-9" value="" style="html=1;dashed=0;whiteSpace=wrap;shape=mxgraph.dfd.start" vertex="1" parent="1">
          <mxGeometry x="200" y="490" width="100" height="50" as="geometry" />
        </mxCell>
        <mxCell id="Wa0-3BYV7t-kmoMnkPTn-10" value="" style="ellipse;html=1;shape=endState;fillColor=#000000;strokeColor=#ff0000;" vertex="1" parent="1">
          <mxGeometry x="385" y="1090" width="30" height="30" as="geometry" />
        </mxCell>
        <mxCell id="Wa0-3BYV7t-kmoMnkPTn-19" style="edgeStyle=orthogonalEdgeStyle;rounded=0;orthogonalLoop=1;jettySize=auto;html=1;exitX=1;exitY=0.5;exitDx=0;exitDy=0;strokeColor=#fa0505;" edge="1" parent="1" source="Wa0-3BYV7t-kmoMnkPTn-11" target="Wa0-3BYV7t-kmoMnkPTn-1">
          <mxGeometry relative="1" as="geometry" />
        </mxCell>
        <mxCell id="Wa0-3BYV7t-kmoMnkPTn-11" value="" style="ellipse;html=1;shape=startState;fillColor=#000000;strokeColor=#ff0000;" vertex="1" parent="1">
          <mxGeometry x="190" y="60" width="30" height="30" as="geometry" />
        </mxCell>
        <mxCell id="Wa0-3BYV7t-kmoMnkPTn-13" value="" style="line;strokeWidth=6;fillColor=none;align=left;verticalAlign=middle;spacingTop=-1;spacingLeft=3;spacingRight=3;rotatable=0;labelPosition=right;points=[];portConstraint=eastwest;strokeColor=inherit;" vertex="1" parent="1">
          <mxGeometry x="353" y="670" width="145" height="8" as="geometry" />
        </mxCell>
        <mxCell id="Wa0-3BYV7t-kmoMnkPTn-50" style="edgeStyle=orthogonalEdgeStyle;rounded=0;orthogonalLoop=1;jettySize=auto;html=1;exitX=1;exitY=0.5;exitDx=0;exitDy=0;entryX=0.61;entryY=0.04;entryDx=0;entryDy=0;entryPerimeter=0;" edge="1" parent="1" source="Wa0-3BYV7t-kmoMnkPTn-14" target="Wa0-3BYV7t-kmoMnkPTn-17">
          <mxGeometry relative="1" as="geometry" />
        </mxCell>
        <mxCell id="Wa0-3BYV7t-kmoMnkPTn-55" style="edgeStyle=orthogonalEdgeStyle;rounded=0;orthogonalLoop=1;jettySize=auto;html=1;exitX=0;exitY=0.5;exitDx=0;exitDy=0;entryX=0.47;entryY=-0.12;entryDx=0;entryDy=0;entryPerimeter=0;" edge="1" parent="1" source="Wa0-3BYV7t-kmoMnkPTn-14" target="Wa0-3BYV7t-kmoMnkPTn-15">
          <mxGeometry relative="1" as="geometry" />
        </mxCell>
        <mxCell id="Wa0-3BYV7t-kmoMnkPTn-14" value="" style="shape=rhombus;html=1;dashed=0;whiteSpace=wrap;perimeter=rhombusPerimeter;" vertex="1" parent="1">
          <mxGeometry x="390" y="720" width="60" height="50" as="geometry" />
        </mxCell>
        <mxCell id="Wa0-3BYV7t-kmoMnkPTn-56" style="edgeStyle=orthogonalEdgeStyle;rounded=0;orthogonalLoop=1;jettySize=auto;html=1;exitX=0.5;exitY=0.5;exitDx=0;exitDy=25;exitPerimeter=0;entryX=0.5;entryY=0.5;entryDx=0;entryDy=25;entryPerimeter=0;endArrow=none;endFill=0;" edge="1" parent="1" source="Wa0-3BYV7t-kmoMnkPTn-15" target="Wa0-3BYV7t-kmoMnkPTn-16">
          <mxGeometry relative="1" as="geometry" />
        </mxCell>
        <mxCell id="Wa0-3BYV7t-kmoMnkPTn-15" value="" style="html=1;dashed=0;whiteSpace=wrap;shape=mxgraph.dfd.start" vertex="1" parent="1">
          <mxGeometry x="200" y="940" width="100" height="50" as="geometry" />
        </mxCell>
        <mxCell id="Wa0-3BYV7t-kmoMnkPTn-16" value="" style="html=1;dashed=0;whiteSpace=wrap;shape=mxgraph.dfd.start" vertex="1" parent="1">
          <mxGeometry x="550" y="980" width="100" height="50" as="geometry" />
        </mxCell>
        <mxCell id="Wa0-3BYV7t-kmoMnkPTn-51" style="edgeStyle=orthogonalEdgeStyle;rounded=0;orthogonalLoop=1;jettySize=auto;html=1;exitX=0.5;exitY=0.5;exitDx=0;exitDy=25;exitPerimeter=0;entryX=0.5;entryY=0.5;entryDx=0;entryDy=-25;entryPerimeter=0;" edge="1" parent="1" source="Wa0-3BYV7t-kmoMnkPTn-17" target="Wa0-3BYV7t-kmoMnkPTn-18">
          <mxGeometry relative="1" as="geometry" />
        </mxCell>
        <mxCell id="Wa0-3BYV7t-kmoMnkPTn-17" value="" style="html=1;dashed=0;whiteSpace=wrap;shape=mxgraph.dfd.start" vertex="1" parent="1">
          <mxGeometry x="550" y="780" width="100" height="50" as="geometry" />
        </mxCell>
        <mxCell id="Wa0-3BYV7t-kmoMnkPTn-54" style="edgeStyle=orthogonalEdgeStyle;rounded=0;orthogonalLoop=1;jettySize=auto;html=1;exitX=0.5;exitY=0.5;exitDx=0;exitDy=25;exitPerimeter=0;entryX=0.5;entryY=0.5;entryDx=0;entryDy=-25;entryPerimeter=0;" edge="1" parent="1" source="Wa0-3BYV7t-kmoMnkPTn-18" target="Wa0-3BYV7t-kmoMnkPTn-16">
          <mxGeometry relative="1" as="geometry" />
        </mxCell>
        <mxCell id="Wa0-3BYV7t-kmoMnkPTn-18" value="" style="html=1;dashed=0;whiteSpace=wrap;shape=mxgraph.dfd.start" vertex="1" parent="1">
          <mxGeometry x="550" y="880" width="100" height="50" as="geometry" />
        </mxCell>
        <mxCell id="Wa0-3BYV7t-kmoMnkPTn-35" style="edgeStyle=orthogonalEdgeStyle;rounded=0;orthogonalLoop=1;jettySize=auto;html=1;exitX=0.5;exitY=1;exitDx=0;exitDy=0;entryX=0.5;entryY=0;entryDx=0;entryDy=0;" edge="1" parent="1" source="Wa0-3BYV7t-kmoMnkPTn-20" target="Wa0-3BYV7t-kmoMnkPTn-22">
          <mxGeometry relative="1" as="geometry" />
        </mxCell>
        <mxCell id="Wa0-3BYV7t-kmoMnkPTn-20" value="Subversion Repository" style="text;html=1;strokeColor=none;fillColor=none;align=center;verticalAlign=middle;whiteSpace=wrap;rounded=0;" vertex="1" parent="1">
          <mxGeometry x="420" y="130" width="60" height="30" as="geometry" />
        </mxCell>
        <mxCell id="Wa0-3BYV7t-kmoMnkPTn-21" value="Start" style="text;html=1;strokeColor=none;fillColor=none;align=center;verticalAlign=middle;whiteSpace=wrap;rounded=0;" vertex="1" parent="1">
          <mxGeometry x="150" y="90" width="60" height="30" as="geometry" />
        </mxCell>
        <mxCell id="Wa0-3BYV7t-kmoMnkPTn-36" style="edgeStyle=orthogonalEdgeStyle;rounded=0;orthogonalLoop=1;jettySize=auto;html=1;exitX=0.5;exitY=1;exitDx=0;exitDy=0;entryX=0.5;entryY=0.5;entryDx=0;entryDy=-20;entryPerimeter=0;" edge="1" parent="1" source="Wa0-3BYV7t-kmoMnkPTn-22" target="Wa0-3BYV7t-kmoMnkPTn-4">
          <mxGeometry relative="1" as="geometry" />
        </mxCell>
        <mxCell id="Wa0-3BYV7t-kmoMnkPTn-22" value="Checking out" style="text;html=1;strokeColor=none;fillColor=none;align=center;verticalAlign=middle;whiteSpace=wrap;rounded=0;" vertex="1" parent="1">
          <mxGeometry x="395.5" y="210" width="60" height="30" as="geometry" />
        </mxCell>
        <mxCell id="Wa0-3BYV7t-kmoMnkPTn-37" style="edgeStyle=orthogonalEdgeStyle;rounded=0;orthogonalLoop=1;jettySize=auto;html=1;exitX=0.5;exitY=1;exitDx=0;exitDy=0;entryX=0.5;entryY=0;entryDx=0;entryDy=0;" edge="1" parent="1" source="Wa0-3BYV7t-kmoMnkPTn-23" target="Wa0-3BYV7t-kmoMnkPTn-24">
          <mxGeometry relative="1" as="geometry" />
        </mxCell>
        <mxCell id="Wa0-3BYV7t-kmoMnkPTn-23" value="Changes" style="text;html=1;strokeColor=none;fillColor=none;align=center;verticalAlign=middle;whiteSpace=wrap;rounded=0;" vertex="1" parent="1">
          <mxGeometry x="395" y="285" width="60" height="30" as="geometry" />
        </mxCell>
        <mxCell id="Wa0-3BYV7t-kmoMnkPTn-38" style="edgeStyle=orthogonalEdgeStyle;rounded=0;orthogonalLoop=1;jettySize=auto;html=1;exitX=0.5;exitY=1;exitDx=0;exitDy=0;entryX=0.552;entryY=0;entryDx=0;entryDy=0;entryPerimeter=0;" edge="1" parent="1" source="Wa0-3BYV7t-kmoMnkPTn-24" target="Wa0-3BYV7t-kmoMnkPTn-7">
          <mxGeometry relative="1" as="geometry" />
        </mxCell>
        <mxCell id="Wa0-3BYV7t-kmoMnkPTn-24" value="Test" style="text;html=1;strokeColor=none;fillColor=none;align=center;verticalAlign=middle;whiteSpace=wrap;rounded=0;" vertex="1" parent="1">
          <mxGeometry x="395" y="350" width="60" height="30" as="geometry" />
        </mxCell>
        <mxCell id="Wa0-3BYV7t-kmoMnkPTn-25" value="Firefox" style="text;html=1;strokeColor=none;fillColor=none;align=center;verticalAlign=middle;whiteSpace=wrap;rounded=0;" vertex="1" parent="1">
          <mxGeometry x="220" y="500" width="60" height="30" as="geometry" />
        </mxCell>
        <mxCell id="Wa0-3BYV7t-kmoMnkPTn-26" value="Internet Explorer" style="text;html=1;strokeColor=none;fillColor=none;align=center;verticalAlign=middle;whiteSpace=wrap;rounded=0;" vertex="1" parent="1">
          <mxGeometry x="560" y="500" width="60" height="30" as="geometry" />
        </mxCell>
        <mxCell id="Wa0-3BYV7t-kmoMnkPTn-48" style="edgeStyle=orthogonalEdgeStyle;rounded=0;orthogonalLoop=1;jettySize=auto;html=1;exitX=0;exitY=1;exitDx=0;exitDy=0;entryX=1;entryY=0.5;entryDx=0;entryDy=0;entryPerimeter=0;" edge="1" parent="1" source="Wa0-3BYV7t-kmoMnkPTn-27" target="Wa0-3BYV7t-kmoMnkPTn-4">
          <mxGeometry relative="1" as="geometry">
            <mxPoint x="720" y="300" as="targetPoint" />
            <Array as="points">
              <mxPoint x="620" y="620" />
              <mxPoint x="721" y="620" />
              <mxPoint x="721" y="300" />
            </Array>
          </mxGeometry>
        </mxCell>
        <mxCell id="Wa0-3BYV7t-kmoMnkPTn-27" value="Fail" style="text;html=1;strokeColor=none;fillColor=none;align=center;verticalAlign=middle;whiteSpace=wrap;rounded=0;" vertex="1" parent="1">
          <mxGeometry x="620" y="570" width="60" height="30" as="geometry" />
        </mxCell>
        <mxCell id="Wa0-3BYV7t-kmoMnkPTn-28" value="Fail" style="text;html=1;strokeColor=none;fillColor=none;align=center;verticalAlign=middle;whiteSpace=wrap;rounded=0;" vertex="1" parent="1">
          <mxGeometry x="150" y="570" width="60" height="30" as="geometry" />
        </mxCell>
        <mxCell id="Wa0-3BYV7t-kmoMnkPTn-29" value="pass" style="text;html=1;strokeColor=none;fillColor=none;align=center;verticalAlign=middle;whiteSpace=wrap;rounded=0;" vertex="1" parent="1">
          <mxGeometry x="270" y="640" width="60" height="30" as="geometry" />
        </mxCell>
        <mxCell id="Wa0-3BYV7t-kmoMnkPTn-30" value="Pass" style="text;html=1;strokeColor=none;fillColor=none;align=center;verticalAlign=middle;whiteSpace=wrap;rounded=0;" vertex="1" parent="1">
          <mxGeometry x="500" y="640" width="60" height="30" as="geometry" />
        </mxCell>
        <mxCell id="Wa0-3BYV7t-kmoMnkPTn-31" value="Generate File" style="text;html=1;strokeColor=none;fillColor=none;align=center;verticalAlign=middle;whiteSpace=wrap;rounded=0;" vertex="1" parent="1">
          <mxGeometry x="570" y="790" width="60" height="30" as="geometry" />
        </mxCell>
        <mxCell id="Wa0-3BYV7t-kmoMnkPTn-32" value="Apply Changes" style="text;html=1;strokeColor=none;fillColor=none;align=center;verticalAlign=middle;whiteSpace=wrap;rounded=0;" vertex="1" parent="1">
          <mxGeometry x="570" y="890" width="60" height="30" as="geometry" />
        </mxCell>
        <mxCell id="Wa0-3BYV7t-kmoMnkPTn-33" value="Commit Changes" style="text;html=1;strokeColor=none;fillColor=none;align=center;verticalAlign=middle;whiteSpace=wrap;rounded=0;" vertex="1" parent="1">
          <mxGeometry x="570" y="990" width="60" height="30" as="geometry" />
        </mxCell>
        <mxCell id="Wa0-3BYV7t-kmoMnkPTn-34" value="Commit Changes" style="text;html=1;strokeColor=none;fillColor=none;align=center;verticalAlign=middle;whiteSpace=wrap;rounded=0;" vertex="1" parent="1">
          <mxGeometry x="220" y="950" width="60" height="30" as="geometry" />
        </mxCell>
        <mxCell id="Wa0-3BYV7t-kmoMnkPTn-41" value="" style="endArrow=classic;html=1;rounded=0;entryX=0.5;entryY=0.5;entryDx=0;entryDy=-25;entryPerimeter=0;exitX=0.252;exitY=0.875;exitDx=0;exitDy=0;exitPerimeter=0;" edge="1" parent="1" source="Wa0-3BYV7t-kmoMnkPTn-7" target="Wa0-3BYV7t-kmoMnkPTn-9">
          <mxGeometry width="50" height="50" relative="1" as="geometry">
            <mxPoint x="400" y="400" as="sourcePoint" />
            <mxPoint x="450" y="350" as="targetPoint" />
            <Array as="points">
              <mxPoint x="380" y="460" />
              <mxPoint x="250" y="460" />
            </Array>
          </mxGeometry>
        </mxCell>
        <mxCell id="Wa0-3BYV7t-kmoMnkPTn-42" value="" style="endArrow=classic;html=1;rounded=0;exitX=0.81;exitY=0.875;exitDx=0;exitDy=0;exitPerimeter=0;" edge="1" parent="1" source="Wa0-3BYV7t-kmoMnkPTn-7">
          <mxGeometry width="50" height="50" relative="1" as="geometry">
            <mxPoint x="465.5" y="438" as="sourcePoint" />
            <mxPoint x="600" y="491" as="targetPoint" />
            <Array as="points">
              <mxPoint x="469.5" y="461" />
              <mxPoint x="599.5" y="461" />
            </Array>
          </mxGeometry>
        </mxCell>
        <mxCell id="Wa0-3BYV7t-kmoMnkPTn-49" value="" style="endArrow=classic;html=1;rounded=0;exitX=0.483;exitY=0.875;exitDx=0;exitDy=0;exitPerimeter=0;entryX=0.5;entryY=0;entryDx=0;entryDy=0;" edge="1" parent="1" source="Wa0-3BYV7t-kmoMnkPTn-13" target="Wa0-3BYV7t-kmoMnkPTn-14">
          <mxGeometry width="50" height="50" relative="1" as="geometry">
            <mxPoint x="400" y="800" as="sourcePoint" />
            <mxPoint x="450" y="750" as="targetPoint" />
          </mxGeometry>
        </mxCell>
        <mxCell id="Wa0-3BYV7t-kmoMnkPTn-58" value="" style="endArrow=classic;html=1;rounded=0;entryX=0.5;entryY=0;entryDx=0;entryDy=0;" edge="1" parent="1" target="Wa0-3BYV7t-kmoMnkPTn-10">
          <mxGeometry width="50" height="50" relative="1" as="geometry">
            <mxPoint x="400" y="1050" as="sourcePoint" />
            <mxPoint x="450" y="850" as="targetPoint" />
          </mxGeometry>
        </mxCell>
        <mxCell id="Wa0-3BYV7t-kmoMnkPTn-59" value="Developer" style="shape=umlFrame;whiteSpace=wrap;html=1;pointerEvents=0;" vertex="1" parent="1">
          <mxGeometry x="140" y="170" width="600" height="980" as="geometry" />
        </mxCell>
        <mxCell id="Wa0-3BYV7t-kmoMnkPTn-60" value="Repository" style="shape=umlFrame;whiteSpace=wrap;html=1;pointerEvents=0;" vertex="1" parent="1">
          <mxGeometry x="140" y="30" width="600" height="140" as="geometry" />
        </mxCell>
      </root>
    </mxGraphModel>
  </diagram>
</mxfile>
